<svg width="1079" height="243" viewBox="0 0 1079 243" fill="none" xmlns="http://www.w3.org/2000/svg">
<g clip-path="url(#clip0)">
<rect width="1079" height="243" />
<path d="M83.2002 83.018V58.916H53.9482V83.018H83.2002ZM53.9482 99.498V206H83.2002V99.498H53.9482Z" fill="white"/>
<path d="M184.308 152.852C184.308 157.247 183.827 161.504 182.866 165.624C181.904 169.744 180.394 173.383 178.334 176.542C176.274 179.701 173.664 182.241 170.506 184.164C167.484 185.949 163.776 186.842 159.382 186.842C155.124 186.842 151.416 185.949 148.258 184.164C145.099 182.241 142.49 179.701 140.43 176.542C138.37 173.383 136.859 169.744 135.898 165.624C134.936 161.504 134.456 157.247 134.456 152.852C134.456 148.32 134.936 143.994 135.898 139.874C136.859 135.754 138.37 132.115 140.43 128.956C142.49 125.797 145.099 123.325 148.258 121.54C151.416 119.617 155.124 118.656 159.382 118.656C163.776 118.656 167.484 119.617 170.506 121.54C173.664 123.325 176.274 125.797 178.334 128.956C180.394 132.115 181.904 135.754 182.866 139.874C183.827 143.994 184.308 148.32 184.308 152.852ZM106.234 58.916V206H134.044V192.404H134.456C137.614 198.309 142.284 202.498 148.464 204.97C154.644 207.442 161.648 208.678 169.476 208.678C174.832 208.678 180.119 207.579 185.338 205.382C190.556 203.185 195.226 199.82 199.346 195.288C203.603 190.756 207.036 184.988 209.646 177.984C212.255 170.843 213.56 162.397 213.56 152.646C213.56 142.895 212.255 134.518 209.646 127.514C207.036 120.373 203.603 114.536 199.346 110.004C195.226 105.472 190.556 102.107 185.338 99.91C180.119 97.7127 174.832 96.614 169.476 96.614C162.884 96.614 156.498 97.9187 150.318 100.528C144.275 103 139.468 106.983 135.898 112.476H135.486V58.916H106.234Z" fill="white"/>
<path d="M310.241 152.852C310.241 157.247 309.761 161.504 308.799 165.624C307.838 169.744 306.327 173.383 304.267 176.542C302.207 179.701 299.598 182.241 296.439 184.164C293.418 185.949 289.71 186.842 285.315 186.842C281.058 186.842 277.35 185.949 274.191 184.164C271.033 182.241 268.423 179.701 266.363 176.542C264.303 173.383 262.793 169.744 261.831 165.624C260.87 161.504 260.389 157.247 260.389 152.852C260.389 148.32 260.87 143.994 261.831 139.874C262.793 135.754 264.303 132.115 266.363 128.956C268.423 125.797 271.033 123.325 274.191 121.54C277.35 119.617 281.058 118.656 285.315 118.656C289.71 118.656 293.418 119.617 296.439 121.54C299.598 123.325 302.207 125.797 304.267 128.956C306.327 132.115 307.838 135.754 308.799 139.874C309.761 143.994 310.241 148.32 310.241 152.852ZM232.167 58.916V206H259.977V192.404H260.389C263.548 198.309 268.217 202.498 274.397 204.97C280.577 207.442 287.581 208.678 295.409 208.678C300.765 208.678 306.053 207.579 311.271 205.382C316.49 203.185 321.159 199.82 325.279 195.288C329.537 190.756 332.97 184.988 335.579 177.984C338.189 170.843 339.493 162.397 339.493 152.646C339.493 142.895 338.189 134.518 335.579 127.514C332.97 120.373 329.537 114.536 325.279 110.004C321.159 105.472 316.49 102.107 311.271 99.91C306.053 97.7127 300.765 96.614 295.409 96.614C288.817 96.614 282.431 97.9187 276.251 100.528C270.209 103 265.402 106.983 261.831 112.476H261.419V58.916H232.167Z" fill="white"/>
<path d="M410.631 219.184L455.127 99.498H424.845L401.567 172.422H401.155L377.053 99.498H345.947L383.233 199.408C384.057 201.468 384.469 203.665 384.469 206C384.469 209.159 383.507 212.043 381.585 214.652C379.799 217.261 376.984 218.772 373.139 219.184C370.255 219.321 367.371 219.253 364.487 218.978C361.603 218.703 358.787 218.429 356.041 218.154V242.256C359.062 242.531 362.015 242.737 364.899 242.874C367.92 243.149 370.941 243.286 373.963 243.286C383.988 243.286 391.816 241.432 397.447 237.724C403.077 234.016 407.472 227.836 410.631 219.184Z" fill="white"/>
<path d="M544.917 171.392H517.107C517.382 178.533 518.961 184.507 521.845 189.314C524.866 193.983 528.643 197.76 533.175 200.644C537.844 203.528 543.132 205.588 549.037 206.824C554.942 208.06 560.985 208.678 567.165 208.678C573.208 208.678 579.113 208.06 584.881 206.824C590.786 205.725 596.005 203.734 600.537 200.85C605.069 197.966 608.708 194.189 611.455 189.52C614.339 184.713 615.781 178.808 615.781 171.804C615.781 166.86 614.82 162.74 612.897 159.444C610.974 156.011 608.434 153.195 605.275 150.998C602.116 148.663 598.477 146.809 594.357 145.436C590.374 144.063 586.254 142.895 581.997 141.934C577.877 140.973 573.826 140.08 569.843 139.256C565.86 138.432 562.29 137.539 559.131 136.578C556.11 135.479 553.638 134.106 551.715 132.458C549.792 130.81 548.831 128.681 548.831 126.072C548.831 123.875 549.38 122.158 550.479 120.922C551.578 119.549 552.882 118.519 554.393 117.832C556.041 117.145 557.826 116.733 559.749 116.596C561.672 116.321 563.457 116.184 565.105 116.184C570.324 116.184 574.856 117.214 578.701 119.274C582.546 121.197 584.675 124.973 585.087 130.604H612.897C612.348 124.012 610.631 118.587 607.747 114.33C605 109.935 601.498 106.433 597.241 103.824C592.984 101.215 588.108 99.3607 582.615 98.262C577.259 97.1634 571.697 96.614 565.929 96.614C560.161 96.614 554.53 97.1634 549.037 98.262C543.544 99.2234 538.6 101.009 534.205 103.618C529.81 106.09 526.24 109.523 523.493 113.918C520.884 118.313 519.579 123.943 519.579 130.81C519.579 135.479 520.54 139.462 522.463 142.758C524.386 145.917 526.926 148.595 530.085 150.792C533.244 152.852 536.814 154.569 540.797 155.942C544.917 157.178 549.106 158.277 553.363 159.238C563.8 161.435 571.903 163.633 577.671 165.83C583.576 168.027 586.529 171.323 586.529 175.718C586.529 178.327 585.911 180.525 584.675 182.31C583.439 183.958 581.86 185.331 579.937 186.43C578.152 187.391 576.092 188.147 573.757 188.696C571.56 189.108 569.431 189.314 567.371 189.314C564.487 189.314 561.672 188.971 558.925 188.284C556.316 187.597 553.981 186.567 551.921 185.194C549.861 183.683 548.144 181.829 546.771 179.632C545.535 177.297 544.917 174.551 544.917 171.392Z" fill="white"/>
<path d="M631.666 132.252C632.078 125.385 633.794 119.686 636.816 115.154C639.837 110.622 643.682 106.983 648.352 104.236C653.021 101.489 658.24 99.5667 664.008 98.468C669.913 97.232 675.818 96.614 681.724 96.614C687.08 96.614 692.504 97.026 697.998 97.85C703.491 98.5367 708.504 99.9787 713.036 102.176C717.568 104.373 721.276 107.463 724.16 111.446C727.044 115.291 728.486 120.441 728.486 126.896V182.31C728.486 187.117 728.76 191.717 729.31 196.112C729.859 200.507 730.82 203.803 732.194 206H702.53C701.98 204.352 701.5 202.704 701.088 201.056C700.813 199.271 700.607 197.485 700.47 195.7C695.8 200.507 690.307 203.871 683.99 205.794C677.672 207.717 671.218 208.678 664.626 208.678C659.544 208.678 654.806 208.06 650.412 206.824C646.017 205.588 642.172 203.665 638.876 201.056C635.58 198.447 632.97 195.151 631.048 191.168C629.262 187.185 628.37 182.447 628.37 176.954C628.37 170.911 629.4 165.967 631.46 162.122C633.657 158.139 636.404 154.981 639.7 152.646C643.133 150.311 646.978 148.595 651.236 147.496C655.63 146.26 660.025 145.299 664.42 144.612C668.814 143.925 673.14 143.376 677.398 142.964C681.655 142.552 685.432 141.934 688.728 141.11C692.024 140.286 694.633 139.119 696.556 137.608C698.478 135.96 699.371 133.625 699.234 130.604C699.234 127.445 698.684 124.973 697.586 123.188C696.624 121.265 695.251 119.823 693.466 118.862C691.818 117.763 689.826 117.077 687.492 116.802C685.294 116.39 682.891 116.184 680.282 116.184C674.514 116.184 669.982 117.42 666.686 119.892C663.39 122.364 661.467 126.484 660.918 132.252H631.666ZM699.234 153.882C697.998 154.981 696.418 155.873 694.496 156.56C692.71 157.109 690.719 157.59 688.522 158.002C686.462 158.414 684.264 158.757 681.93 159.032C679.595 159.307 677.26 159.65 674.926 160.062C672.728 160.474 670.531 161.023 668.334 161.71C666.274 162.397 664.42 163.358 662.772 164.594C661.261 165.693 660.025 167.135 659.064 168.92C658.102 170.705 657.622 172.971 657.622 175.718C657.622 178.327 658.102 180.525 659.064 182.31C660.025 184.095 661.33 185.537 662.978 186.636C664.626 187.597 666.548 188.284 668.746 188.696C670.943 189.108 673.209 189.314 675.544 189.314C681.312 189.314 685.775 188.353 688.934 186.43C692.092 184.507 694.427 182.241 695.938 179.632C697.448 176.885 698.341 174.139 698.616 171.392C699.028 168.645 699.234 166.448 699.234 164.8V153.882Z" fill="white"/>
<path d="M773.851 171.392H746.041C746.315 178.533 747.895 184.507 750.779 189.314C753.8 193.983 757.577 197.76 762.109 200.644C766.778 203.528 772.065 205.588 777.971 206.824C783.876 208.06 789.919 208.678 796.099 208.678C802.141 208.678 808.047 208.06 813.815 206.824C819.72 205.725 824.939 203.734 829.471 200.85C834.003 197.966 837.642 194.189 840.389 189.52C843.273 184.713 844.715 178.808 844.715 171.804C844.715 166.86 843.753 162.74 841.831 159.444C839.908 156.011 837.367 153.195 834.209 150.998C831.05 148.663 827.411 146.809 823.291 145.436C819.308 144.063 815.188 142.895 810.931 141.934C806.811 140.973 802.759 140.08 798.777 139.256C794.794 138.432 791.223 137.539 788.065 136.578C785.043 135.479 782.571 134.106 780.649 132.458C778.726 130.81 777.765 128.681 777.765 126.072C777.765 123.875 778.314 122.158 779.413 120.922C780.511 119.549 781.816 118.519 783.327 117.832C784.975 117.145 786.76 116.733 788.683 116.596C790.605 116.321 792.391 116.184 794.039 116.184C799.257 116.184 803.789 117.214 807.635 119.274C811.48 121.197 813.609 124.973 814.021 130.604H841.831C841.281 124.012 839.565 118.587 836.681 114.33C833.934 109.935 830.432 106.433 826.175 103.824C821.917 101.215 817.042 99.3607 811.549 98.262C806.193 97.1634 800.631 96.614 794.863 96.614C789.095 96.614 783.464 97.1634 777.971 98.262C772.477 99.2234 767.533 101.009 763.139 103.618C758.744 106.09 755.173 109.523 752.427 113.918C749.817 118.313 748.513 123.943 748.513 130.81C748.513 135.479 749.474 139.462 751.397 142.758C753.319 145.917 755.86 148.595 759.019 150.792C762.177 152.852 765.748 154.569 769.731 155.942C773.851 157.178 778.039 158.277 782.297 159.238C792.734 161.435 800.837 163.633 806.605 165.83C812.51 168.027 815.463 171.323 815.463 175.718C815.463 178.327 814.845 180.525 813.609 182.31C812.373 183.958 810.793 185.331 808.871 186.43C807.085 187.391 805.025 188.147 802.691 188.696C800.493 189.108 798.365 189.314 796.305 189.314C793.421 189.314 790.605 188.971 787.859 188.284C785.249 187.597 782.915 186.567 780.855 185.194C778.795 183.683 777.078 181.829 775.705 179.632C774.469 177.297 773.851 174.551 773.851 171.392Z" fill="white"/>
<path d="M884.495 171.392H856.685C856.96 178.533 858.539 184.507 861.423 189.314C864.444 193.983 868.221 197.76 872.753 200.644C877.423 203.528 882.71 205.588 888.615 206.824C894.521 208.06 900.563 208.678 906.743 208.678C912.786 208.678 918.691 208.06 924.459 206.824C930.365 205.725 935.583 203.734 940.115 200.85C944.647 197.966 948.287 194.189 951.033 189.52C953.917 184.713 955.359 178.808 955.359 171.804C955.359 166.86 954.398 162.74 952.475 159.444C950.552 156.011 948.012 153.195 944.853 150.998C941.695 148.663 938.055 146.809 933.935 145.436C929.953 144.063 925.833 142.895 921.575 141.934C917.455 140.973 913.404 140.08 909.421 139.256C905.439 138.432 901.868 137.539 898.709 136.578C895.688 135.479 893.216 134.106 891.293 132.458C889.37 130.81 888.409 128.681 888.409 126.072C888.409 123.875 888.959 122.158 890.057 120.922C891.156 119.549 892.461 118.519 893.971 117.832C895.619 117.145 897.405 116.733 899.327 116.596C901.25 116.321 903.035 116.184 904.683 116.184C909.902 116.184 914.434 117.214 918.279 119.274C922.125 121.197 924.253 124.973 924.665 130.604H952.475C951.926 124.012 950.209 118.587 947.325 114.33C944.579 109.935 941.076 106.433 936.819 103.824C932.562 101.215 927.687 99.3607 922.193 98.262C916.837 97.1634 911.275 96.614 905.507 96.614C899.739 96.614 894.109 97.1634 888.615 98.262C883.122 99.2234 878.178 101.009 873.783 103.618C869.389 106.09 865.818 109.523 863.071 113.918C860.462 118.313 859.157 123.943 859.157 130.81C859.157 135.479 860.119 139.462 862.041 142.758C863.964 145.917 866.505 148.595 869.663 150.792C872.822 152.852 876.393 154.569 880.375 155.942C884.495 157.178 888.684 158.277 892.941 159.238C903.378 161.435 911.481 163.633 917.249 165.83C923.155 168.027 926.107 171.323 926.107 175.718C926.107 178.327 925.489 180.525 924.253 182.31C923.017 183.958 921.438 185.331 919.515 186.43C917.73 187.391 915.67 188.147 913.335 188.696C911.138 189.108 909.009 189.314 906.949 189.314C904.065 189.314 901.25 188.971 898.503 188.284C895.894 187.597 893.559 186.567 891.499 185.194C889.439 183.683 887.723 181.829 886.349 179.632C885.113 177.297 884.495 174.551 884.495 171.392Z" fill="white"/>
<path d="M998.436 152.852C998.436 148.595 998.848 144.406 999.672 140.286C1000.5 136.166 1001.87 132.527 1003.79 129.368C1005.85 126.209 1008.53 123.669 1011.83 121.746C1015.12 119.686 1019.24 118.656 1024.19 118.656C1029.13 118.656 1033.25 119.686 1036.55 121.746C1039.98 123.669 1042.66 126.209 1044.58 129.368C1046.64 132.527 1048.08 136.166 1048.91 140.286C1049.73 144.406 1050.14 148.595 1050.14 152.852C1050.14 157.109 1049.73 161.298 1048.91 165.418C1048.08 169.401 1046.64 173.04 1044.58 176.336C1042.66 179.495 1039.98 182.035 1036.55 183.958C1033.25 185.881 1029.13 186.842 1024.19 186.842C1019.24 186.842 1015.12 185.881 1011.83 183.958C1008.53 182.035 1005.85 179.495 1003.79 176.336C1001.87 173.04 1000.5 169.401 999.672 165.418C998.848 161.298 998.436 157.109 998.436 152.852ZM969.184 152.852C969.184 161.367 970.488 169.057 973.098 175.924C975.707 182.791 979.415 188.696 984.222 193.64C989.028 198.447 994.796 202.155 1001.53 204.764C1008.26 207.373 1015.81 208.678 1024.19 208.678C1032.56 208.678 1040.12 207.373 1046.85 204.764C1053.71 202.155 1059.55 198.447 1064.36 193.64C1069.16 188.696 1072.87 182.791 1075.48 175.924C1078.09 169.057 1079.39 161.367 1079.39 152.852C1079.39 144.337 1078.09 136.647 1075.48 129.78C1072.87 122.776 1069.16 116.871 1064.36 112.064C1059.55 107.12 1053.71 103.343 1046.85 100.734C1040.12 97.9874 1032.56 96.614 1024.19 96.614C1015.81 96.614 1008.26 97.9874 1001.53 100.734C994.796 103.343 989.028 107.12 984.222 112.064C979.415 116.871 975.707 122.776 973.098 129.78C970.488 136.647 969.184 144.337 969.184 152.852Z" fill="white"/>
<path d="M83.2072 83.2076H53.8402L53.8398 51.9184C53.8398 46.5004 54.4229 39.8102 55.5883 34.6384C56.9867 29.2204 58.9678 24.2949 61.5316 19.8619C66.0321 11.6478 74.2844 2.57138 83.2072 0V15.8848C78.2815 17.8866 73.9797 26.1122 72.0198 30.9443C70.6214 34.1459 69.5725 37.5937 68.8733 41.2879C68.4072 44.7357 68.2903 49.3325 68.5233 52.2878H83.2068L83.2072 83.2076Z" fill="#EE7868"/>
<path d="M31.8146 83.2076H0.000416952L0 51.9184C0 46.5004 0.631652 39.8102 1.89412 34.6384C3.40909 29.2204 5.55528 24.2949 8.33271 19.8619C13.2083 11.6478 22.1483 2.57138 31.8146 0V15.8848C26.4785 17.8866 21.8181 26.1122 19.6949 30.9443C18.18 34.1459 17.0437 37.5937 16.2863 41.2879C15.7813 44.7357 15.6546 49.3325 15.9071 52.2878H31.8142L31.8146 83.2076Z" fill="#EE7868"/>
</g>
<defs>
<clipPath id="clip0">
<rect width="1079" height="243" fill="white"/>
</clipPath>
</defs>
</svg>
