<svg xmlns="http://www.w3.org/2000/svg" xmlns:xlink="http://www.w3.org/1999/xlink" width="207.578" height="206.513" viewBox="0 0 207.578 206.513"><defs><clipPath id="a"><rect width="153.023" height="150.113" fill="#fff"/></clipPath></defs><g transform="translate(-1075.43 95.812) rotate(-30)"><g transform="translate(941 521)"><path d="M25.343,0l-1.78,1.834,2.636.623L23.108,15.48l2.317.549L29.023.869Z" transform="translate(66.881 0)" fill="#fff"/><g transform="translate(0 0)"><g clip-path="url(#a)"><path d="M25.849,13.271a9.475,9.475,0,0,1,.9-6.6,9.59,9.59,0,0,1,4.513-4.938,4.538,4.538,0,0,1,6.391,3,9.561,9.561,0,0,1-.911,6.62,9.461,9.461,0,0,1-4.5,4.915,4.542,4.542,0,0,1-6.391-2.995m5.978-9.389A9.022,9.022,0,0,0,28.875,7.64a9.127,9.127,0,0,0-1.013,4.689,2.367,2.367,0,0,0,3.813,1.787,9.124,9.124,0,0,0,2.956-3.777,9,9,0,0,0,1-4.669,2.488,2.488,0,0,0-1.363-2.056,2.5,2.5,0,0,0-2.446.269" transform="translate(74.017 3.688)" fill="#fff"/><path d="M28.909,13.6A9.48,9.48,0,0,1,31.32,7.4a9.526,9.526,0,0,1,5.53-3.75,4.537,4.537,0,0,1,5.522,4.4,9.526,9.526,0,0,1-2.426,6.227,9.474,9.474,0,0,1-5.518,3.731,4.545,4.545,0,0,1-5.518-4.4m8-7.73a8.936,8.936,0,0,0-3.739,2.964,9.028,9.028,0,0,0-2.076,4.327,2.361,2.361,0,0,0,3.291,2.621,9.019,9.019,0,0,0,3.75-2.983,9.016,9.016,0,0,0,2.064-4.307,2.507,2.507,0,0,0-.841-2.317,2.487,2.487,0,0,0-2.45-.3" transform="translate(83.652 10.278)" fill="#fff"/><path d="M49.415,15.01l.121,1.258-17.758,1.78-.09-1.289ZM42.171,26.1a3.765,3.765,0,1,1,.794-5.2,3.74,3.74,0,0,1-.794,5.2m1.207-13A3.765,3.765,0,1,1,44.169,7.9a3.744,3.744,0,0,1-.791,5.195M41.112,24.613a1.943,1.943,0,1,0-2.745-.421,1.933,1.933,0,0,0,2.745.421m1.2-13a1.94,1.94,0,1,0-2.745-.417,1.936,1.936,0,0,0,2.745.417" transform="translate(91.715 18.266)" fill="#fff"/><path d="M49.8,15.522,40.207,22.24l11.574,1.752.584,2.5L34.626,23.54,49.211,13.018Z" transform="translate(100.219 37.677)" fill="#fff"/><path d="M48.671,26.714l-.031-6.219-3.949.012.023,6.04-2.247.008-.023-6.036-4.907.019.019,6.223-2.243.012-.035-8.61,15.6-.062.035,8.606Z" transform="translate(102.107 52.385)" fill="#fff"/><path d="M42.809,30.5l-1.577,6.239-.117-.027a8.515,8.515,0,0,1-5.549-3.8,7.285,7.285,0,0,1-.623-5.635,6.772,6.772,0,0,1,3.365-4.626,8.631,8.631,0,0,1,11.375,2.835,8.326,8.326,0,0,1,.829,6.266,8.411,8.411,0,0,1-1.955,3.7,7.1,7.1,0,0,1-2.893,1.877l-.826-2.165a6.416,6.416,0,0,0,2.2-1.421,5.312,5.312,0,0,0,1.332-2.512,5.64,5.64,0,0,0-.553-4.385,6.321,6.321,0,0,0-3.836-2.687,6.247,6.247,0,0,0-4.5.526A5.051,5.051,0,0,0,37,28.094a4.68,4.68,0,0,0,.487,3.715,4.154,4.154,0,0,0,2.235,1.92l.954-3.766Z" transform="translate(100.283 62.447)" fill="#fff"/><path d="M37.575,36.694l3.337-5.764-2.4-3.361L39.8,25.346,50.181,40.327,32.209,38.443,33.5,36.219Zm2.418.292,5.729.646L42.358,32.9Z" transform="translate(93.222 73.358)" fill="#fff"/><path d="M39.587,29.229,51.11,41.2l-16.344-.693,7.477,7.769-1.717,1.651-11.457-11.9,16.344.693-7.539-7.839Z" transform="translate(84.133 84.598)" fill="#fff"/><path d="M15.228,45.829a6.075,6.075,0,0,0,3.863,2.438A5.569,5.569,0,0,0,25.715,43.4a5.624,5.624,0,0,0-4.6-6.741,6.2,6.2,0,0,0-4.463,1.04l.491-2.784a8.542,8.542,0,0,1,4.416-.409,7.815,7.815,0,0,1,5.063,3.073,7.62,7.62,0,0,1,1.441,6.235,8.165,8.165,0,0,1-3.52,5.577,7.721,7.721,0,0,1-5.9,1.028,7.487,7.487,0,0,1-3.9-1.826Z" transform="translate(42.665 99.521)" fill="#fff"/><path d="M15.241,50.159a6.989,6.989,0,0,1-3.411-2.473,4.358,4.358,0,0,1-.23-4.1,4.279,4.279,0,0,1,4.9-2.609l-1.811-8.038,2.636,1.141,1.55,7.629.393.167,2.535-5.853,2.185.95-6.2,14.292Zm3.213-6.4-.689-.3c-.6-.265-3.069-1.258-4.058,1.013-.868,2.013.95,3.034,2.025,3.5l.748.327Z" transform="translate(32.387 95.332)" fill="#fff"/><path d="M13.866,47.178l5.705-7.465a5.472,5.472,0,0,0,1.242-2.434,3.41,3.41,0,0,0-4.6-3.517A5.368,5.368,0,0,0,14.186,35.6L8.477,43.058,6.588,41.609l6.087-7.964a5.775,5.775,0,0,1,3.606-2.329,5.676,5.676,0,0,1,4.545,1.176,5.591,5.591,0,0,1,1.02,8.166l-6.091,7.964Z" transform="translate(19.068 90.387)" fill="#fff"/><path d="M5.457,36.571,9.386,41.4,12.447,38.9,8.638,34.223l1.745-1.414,3.8,4.673L18,34.386l-3.925-4.821,1.737-1.414,5.429,6.671L9.149,44.659,3.72,37.988Z" transform="translate(10.767 81.478)" fill="#fff"/><path d="M2.461,37.122l11.722-6.363L12,26.74l1.974-1.067,3.318,6.114L3.6,39.218Z" transform="translate(7.123 74.305)" fill="#fff"/><path d="M3.992,28.294l12.618-4.327.771,2.255L4.767,30.545l1.157,3.38L3.8,34.657.713,25.638l2.122-.724Z" transform="translate(2.063 69.367)" fill="#fff"/><path d="M9.7,26.352,1.519,32.5,1.2,29.814l5.764-4.33L.327,22.664,0,19.969l9.416,4.019,6.679-.814.292,2.372Z" transform="translate(0.001 57.797)" fill="#fff"/><rect width="5.605" height="2.381" transform="matrix(0.058, -0.998, 0.998, 0.058, 6.781, 73.599)" fill="#fff"/><path d="M4.293,14.2,3.082,19.472l3.844.88L8.1,15.259l2.181.5-1.168,5.1,6.959,1.6-.53,2.321L.368,21.291l1.737-7.6Z" transform="translate(1.065 39.631)" fill="#fff"/><path d="M2.564,14.272a6.946,6.946,0,0,1,2.551-3.345,4.341,4.341,0,0,1,4.1-.132A4.268,4.268,0,0,1,11.7,15.755l8.081-1.612-1.211,2.6-7.656,1.371-.175.382,5.787,2.675-1,2.161L1.4,16.8Zm6.313,3.361.315-.678c.273-.592,1.328-3.038-.915-4.077-1.994-.919-3.053.876-3.544,1.935l-.347.74Z" transform="translate(4.04 29.916)" fill="#fff"/><path d="M10.368,7.8l-3.75,4.957,3.158,2.383,3.629-4.813L15.2,11.684,11.56,16.489l3.918,2.96,3.742-4.957,1.791,1.351L15.824,22.7l-12.431-9.4L8.581,6.446Z" transform="translate(9.822 18.656)" fill="#fff"/><path d="M13.961,5.334,9.276,9.423l2.6,2.971,4.545-3.957,1.472,1.686L13.35,14.089l3.224,3.7L21.255,13.7l1.476,1.694-6.48,5.651L6.009,9.3l6.48-5.655Z" transform="translate(17.391 10.546)" fill="#fff"/></g></g></g></g></svg>